<svg xmlns="http://www.w3.org/2000/svg" viewBox="0 0 420 360"><defs><linearGradient id="b" x2="1" y2="1"><stop stop-color="#edfbf7"/><stop offset="1" stop-color="#d9f6ee"/></linearGradient></defs><rect width="420" height="360" fill="url(#b)"/><rect x="131" y="190" width="158" height="73" rx="36" fill="#fff" stroke="#d4eee7" stroke-width="3"/><path d="M154 89c0-18 15-32 33-32s31 13 31 31c0 16-10 27-25 31v68h-24v-75c-9-6-15-14-15-23Zm77 0c0-18 14-32 32-32s32 14 32 32c0 9-6 17-15 23v75h-24v-68c-15-4-25-15-25-30Z" fill="#fff" stroke="#85bdaf" stroke-width="3"/><text x="210" y="300" text-anchor="middle" font-family="Arial" font-size="15" fill="#50786e">BUDS AIR PRO</text></svg>
